<svg width="74" height="74" viewBox="0 0 74 74" fill="none" xmlns="http://www.w3.org/2000/svg">
<g clip-path="url(#clip0_365_601)">
<path d="M58.5833 12.3333H55.1917C54.476 8.85352 52.5826 5.72682 49.8305 3.48021C47.0784 1.23361 43.636 0.00448478 40.0833 0L33.9167 0C30.364 0.00448478 26.9216 1.23361 24.1695 3.48021C21.4174 5.72682 19.524 8.85352 18.8083 12.3333H15.4167C11.3294 12.3382 7.41097 13.9641 4.52084 16.8542C1.63072 19.7443 0.00489589 23.6627 0 27.75L0 58.5833C0.00489589 62.6706 1.63072 66.589 4.52084 69.4792C7.41097 72.3693 11.3294 73.9951 15.4167 74H58.5833C62.6706 73.9951 66.589 72.3693 69.4792 69.4792C72.3693 66.589 73.9951 62.6706 74 58.5833V27.75C73.9951 23.6627 72.3693 19.7443 69.4792 16.8542C66.589 13.9641 62.6706 12.3382 58.5833 12.3333ZM33.9167 6.16667H40.0833C41.9896 6.17457 43.8469 6.77126 45.4012 7.8751C46.9554 8.97895 48.1306 10.536 48.766 12.3333H25.234C25.8694 10.536 27.0446 8.97895 28.5988 7.8751C30.1531 6.77126 32.0104 6.17457 33.9167 6.16667ZM15.4167 18.5H58.5833C61.0366 18.5 63.3894 19.4746 65.1241 21.2093C66.8588 22.944 67.8333 25.2967 67.8333 27.75V37H6.16667V27.75C6.16667 25.2967 7.14122 22.944 8.87593 21.2093C10.6106 19.4746 12.9634 18.5 15.4167 18.5ZM58.5833 67.8333H15.4167C12.9634 67.8333 10.6106 66.8588 8.87593 65.1241C7.14122 63.3894 6.16667 61.0366 6.16667 58.5833V43.1667H33.9167V46.25C33.9167 47.0677 34.2415 47.852 34.8198 48.4302C35.398 49.0085 36.1822 49.3333 37 49.3333C37.8177 49.3333 38.602 49.0085 39.1802 48.4302C39.7585 47.852 40.0833 47.0677 40.0833 46.25V43.1667H67.8333V58.5833C67.8333 61.0366 66.8588 63.3894 65.1241 65.1241C63.3894 66.8588 61.0366 67.8333 58.5833 67.8333Z" fill="white"/>
</g>
<defs>
<clipPath id="clip0_365_601">
<rect width="74" height="74" fill="white"/>
</clipPath>
</defs>
</svg>
