<svg width="63" height="74" viewBox="0 0 63 74" fill="none" xmlns="http://www.w3.org/2000/svg">
<path d="M56.1762 17.0693L45.4339 6.32078C43.4338 4.31087 41.0552 2.71739 38.4354 1.63245C35.8157 0.547511 33.0069 -0.00734902 30.1714 -5.10036e-05H16.2502C12.1629 0.00484489 8.24447 1.63067 5.35434 4.52079C2.46422 7.41092 0.838392 11.3294 0.833496 15.4166V58.5833C0.838392 62.6705 2.46422 66.589 5.35434 69.4791C8.24447 72.3692 12.1629 73.995 16.2502 73.9999H47.0835C51.1707 73.995 55.0892 72.3692 57.9793 69.4791C60.8694 66.589 62.4953 62.6705 62.5002 58.5833V32.3287C62.5078 29.4933 61.9528 26.6846 60.8673 24.0653C59.7818 21.4459 58.1873 19.068 56.1762 17.0693ZM51.8164 21.4291C52.7579 22.3977 53.5676 23.4863 54.2245 24.6666H40.9168C40.0991 24.6666 39.3148 24.3418 38.7366 23.7635C38.1583 23.1853 37.8335 22.401 37.8335 21.5833V8.27562C39.0142 8.93213 40.1037 9.74069 41.0741 10.6806L51.8164 21.4291ZM56.3335 58.5833C56.3335 61.0365 55.3589 63.3893 53.6242 65.124C51.8895 66.8587 49.5368 67.8333 47.0835 67.8333H16.2502C13.7969 67.8333 11.4441 66.8587 9.70943 65.124C7.97471 63.3893 7.00016 61.0365 7.00016 58.5833V15.4166C7.00016 12.9634 7.97471 10.6106 9.70943 8.87588C11.4441 7.14117 13.7969 6.16662 16.2502 6.16662H30.1714C30.6771 6.16662 31.1673 6.26528 31.6668 6.31153V21.5833C31.6668 24.0365 32.6414 26.3893 34.3761 28.124C36.1108 29.8587 38.4636 30.8333 40.9168 30.8333H56.1886C56.2348 31.3328 56.3335 31.8199 56.3335 32.3287V58.5833Z" fill="white"/>
</svg>
