<svg width="74" height="74" viewBox="0 0 74 74" fill="none" xmlns="http://www.w3.org/2000/svg">
<g clip-path="url(#clip0_365_626)">
<path d="M58.5833 0H40.0833C35.9961 0.00489589 32.0776 1.63072 29.1875 4.52084C26.2974 7.41097 24.6716 11.3294 24.6667 15.4167V15.725C21.1869 16.4406 18.0602 18.3341 15.8135 21.0861C13.5669 23.8382 12.3378 27.2807 12.3333 30.8333V31.1417C8.85352 31.8573 5.72682 33.7507 3.48021 36.5028C1.23361 39.2549 0.00448478 42.6974 0 46.25L0 58.5833C0.00489589 62.6706 1.63072 66.589 4.52084 69.4792C7.41097 72.3693 11.3294 73.9951 15.4167 74H33.9167C38.0039 73.9951 41.9224 72.3693 44.8125 69.4792C47.7026 66.589 49.3284 62.6706 49.3333 58.5833V58.275C52.8131 57.5594 55.9398 55.6659 58.1865 52.9139C60.4331 50.1618 61.6622 46.7193 61.6667 43.1667V42.8583C65.1465 42.1427 68.2732 40.2493 70.5198 37.4972C72.7664 34.7451 73.9955 31.3026 74 27.75V15.4167C73.9951 11.3294 72.3693 7.41097 69.4792 4.52084C66.589 1.63072 62.6706 0.00489589 58.5833 0ZM6.16667 46.25C6.16667 43.7967 7.14122 41.444 8.87593 39.7093C10.6106 37.9745 12.9634 37 15.4167 37H33.9167C35.593 37.0045 37.2363 37.4663 38.6696 38.3356C40.1029 39.205 41.2718 40.4489 42.0505 41.9333L31.3976 52.6109L29.933 51.134C28.8412 50.034 27.3739 49.3875 25.8253 49.324C24.2768 49.2605 22.7615 49.7848 21.5833 50.7917L7.33525 63.0018C6.57729 61.6519 6.17516 60.1314 6.16667 58.5833V46.25ZM43.1667 58.5833C43.1667 61.0366 42.1921 63.3894 40.4574 65.1241C38.7227 66.8588 36.3699 67.8333 33.9167 67.8333H15.4167C14.2344 67.8308 13.0638 67.5994 11.9695 67.1519L25.5547 55.5L27.0223 56.9831C28.1788 58.1392 29.747 58.7886 31.3822 58.7886C33.0173 58.7886 34.5856 58.1392 35.742 56.9831L43.1667 49.543V58.5833ZM55.5 43.1667C55.4921 45.073 54.8954 46.9303 53.7916 48.4845C52.6877 50.0387 51.1306 51.2139 49.3333 51.8493V46.25C49.3284 42.1627 47.7026 38.2443 44.8125 35.3542C41.9224 32.4641 38.0039 30.8382 33.9167 30.8333H18.5C18.5 28.3801 19.4746 26.0273 21.2093 24.2926C22.944 22.5579 25.2967 21.5833 27.75 21.5833H46.25C48.7033 21.5833 51.056 22.5579 52.7907 24.2926C54.5254 26.0273 55.5 28.3801 55.5 30.8333V43.1667ZM67.8333 27.75C67.8254 29.6563 67.2287 31.5136 66.1249 33.0678C65.021 34.622 63.464 35.7972 61.6667 36.4327V30.8333C61.6618 26.7461 60.0359 22.8276 57.1458 19.9375C54.2557 17.0474 50.3372 15.4216 46.25 15.4167H30.8333C30.8333 12.9634 31.8079 10.6106 33.5426 8.87593C35.2773 7.14122 37.6301 6.16667 40.0833 6.16667H58.5833C61.0366 6.16667 63.3894 7.14122 65.1241 8.87593C66.8588 10.6106 67.8333 12.9634 67.8333 15.4167V27.75ZM12.3333 46.25C12.3333 45.6402 12.5142 45.044 12.853 44.537C13.1918 44.0299 13.6733 43.6347 14.2367 43.4014C14.8001 43.168 15.4201 43.1069 16.0182 43.2259C16.6163 43.3449 17.1657 43.6385 17.5969 44.0698C18.0281 44.501 18.3218 45.0504 18.4408 45.6485C18.5597 46.2466 18.4987 46.8665 18.2653 47.4299C18.0319 47.9933 17.6367 48.4749 17.1297 48.8137C16.6226 49.1525 16.0265 49.3333 15.4167 49.3333C14.5989 49.3333 13.8147 49.0085 13.2364 48.4302C12.6582 47.852 12.3333 47.0677 12.3333 46.25Z" fill="white"/>
</g>
<defs>
<clipPath id="clip0_365_626">
<rect width="74" height="74" fill="white"/>
</clipPath>
</defs>
</svg>
