<svg width="75" height="74" viewBox="0 0 75 74" fill="none" xmlns="http://www.w3.org/2000/svg">
<g clip-path="url(#clip0_365_633)">
<path d="M58.9166 6.16675H15.7499C7.23992 6.16675 0.333252 13.0734 0.333252 21.5834V52.4168C0.333252 60.9268 7.23992 67.8334 15.7499 67.8334H58.9166C67.4266 67.8334 74.3333 60.9268 74.3333 52.4168V21.5834C74.3333 13.0734 67.4266 6.16675 58.9166 6.16675ZM15.7499 12.3334H58.9166C64.0041 12.3334 68.1666 16.4959 68.1666 21.5834H6.49992C6.49992 16.4959 10.6624 12.3334 15.7499 12.3334ZM58.9166 61.6668H15.7499C10.6624 61.6668 6.49992 57.5042 6.49992 52.4168V27.7501H68.1666V52.4168C68.1666 57.5042 64.0041 61.6668 58.9166 61.6668ZM31.1666 37.0001C31.1666 38.6959 29.7791 40.0834 28.0833 40.0834H24.9999V52.4168C24.9999 54.1126 23.6124 55.5001 21.9166 55.5001C20.2208 55.5001 18.8333 54.1126 18.8333 52.4168V40.0834H15.7499C14.0541 40.0834 12.6666 38.6959 12.6666 37.0001C12.6666 35.3042 14.0541 33.9167 15.7499 33.9167H28.0833C29.7791 33.9167 31.1666 35.3042 31.1666 37.0001ZM61.9999 37.0001C61.9999 38.6959 60.6124 40.0834 58.9166 40.0834H40.4166C38.7208 40.0834 37.3333 38.6959 37.3333 37.0001C37.3333 35.3042 38.7208 33.9167 40.4166 33.9167H58.9166C60.6124 33.9167 61.9999 35.3042 61.9999 37.0001ZM61.9999 49.3334C61.9999 51.0293 60.6124 52.4168 58.9166 52.4168H40.4166C38.7208 52.4168 37.3333 51.0293 37.3333 49.3334C37.3333 47.6376 38.7208 46.2501 40.4166 46.2501H58.9166C60.6124 46.2501 61.9999 47.6376 61.9999 49.3334Z" fill="white"/>
</g>
<defs>
<clipPath id="clip0_365_633">
<rect width="74" height="74" fill="white" transform="translate(0.333252)"/>
</clipPath>
</defs>
</svg>
