<svg width="75" height="74" viewBox="0 0 75 74" fill="none" xmlns="http://www.w3.org/2000/svg">
<g clip-path="url(#clip0_365_641)">
<path d="M55.6919 43.8358L42.1468 38.0021C39.2577 36.7595 35.9432 36.7595 33.0572 38.0082L19.5984 43.8358C17.3692 44.8008 15.9847 46.9098 15.9817 49.3364C15.9786 51.763 17.3599 53.8751 19.583 54.8463L25.3334 57.3562V65.3482C25.3334 68.3513 27.0909 71.1017 29.8166 72.3566C32.1877 73.4481 34.827 74 37.6667 74C40.5065 74 43.1458 73.445 45.5231 72.3566C48.2426 71.1017 50.0001 68.3483 50.0001 65.3482V57.3315L53.0834 55.9933V64.7531C53.0834 66.4582 54.4617 67.8364 56.1667 67.8364C57.8718 67.8364 59.2501 66.4582 59.2501 64.7531C59.2501 64.7531 59.2501 49.4998 59.2501 49.3364C59.2501 46.9407 57.8903 44.7793 55.6919 43.8388V43.8358ZM35.5084 43.6693C36.8404 43.0896 38.3759 43.0896 39.7079 43.6631L53.1204 49.1422C53.1204 49.1853 53.0988 49.2192 53.0957 49.2624L39.7295 55.0683C38.3852 55.6511 36.8435 55.6511 35.4992 55.0622L22.0466 49.4967L35.5053 43.6693H35.5084ZM43.8334 65.3451C43.8334 65.9587 43.4912 66.5013 42.9423 66.7542C39.8282 68.1817 35.5022 68.1817 32.3942 66.7542C31.8423 66.5013 31.5001 65.9587 31.5001 65.3451V60.0448L33.0356 60.7139C34.494 61.3491 36.0572 61.6667 37.6236 61.6667C39.1807 61.6667 40.7377 61.3522 42.19 60.7201L43.8334 60.0047V65.3451ZM22.2501 13.875C22.2501 16.428 20.1781 18.5 17.6251 18.5C15.0721 18.5 13.0001 16.428 13.0001 13.875C13.0001 11.322 15.0721 9.25 17.6251 9.25C20.1781 9.25 22.2501 11.322 22.2501 13.875ZM34.5834 13.875C34.5834 16.428 32.5114 18.5 29.9584 18.5C27.4054 18.5 25.3334 16.428 25.3334 13.875C25.3334 11.322 27.4054 9.25 29.9584 9.25C32.5114 9.25 34.5834 11.322 34.5834 13.875ZM59.2501 0H16.0834C7.58266 0 0.666748 6.91592 0.666748 15.4167V52.4167C0.666748 60.9174 7.58266 67.8333 16.0834 67.8333C17.7854 67.8333 19.1667 66.4551 19.1667 64.75C19.1667 63.0449 17.7854 61.6667 16.0834 61.6667C10.9836 61.6667 6.83341 57.5165 6.83341 52.4167V27.75H68.5001V52.4167C68.5001 54.6706 67.6799 56.8443 66.1907 58.5309C65.0652 59.8074 65.1855 61.7561 66.4651 62.8815C67.7354 64.0069 69.6872 63.8897 70.8157 62.6071C73.3008 59.7951 74.6667 56.1722 74.6667 52.4136V15.4167C74.6667 6.91592 67.7508 0 59.2501 0ZM6.83341 21.5833V15.4167C6.83341 10.3168 10.9836 6.16667 16.0834 6.16667H59.2501C64.3499 6.16667 68.5001 10.3168 68.5001 15.4167V21.5833H6.83341Z" fill="white"/>
</g>
<defs>
<clipPath id="clip0_365_641">
<rect width="74" height="74" fill="white" transform="translate(0.666748)"/>
</clipPath>
</defs>
</svg>
