<svg width="74" height="74" viewBox="0 0 74 74" fill="none" xmlns="http://www.w3.org/2000/svg">
<g clip-path="url(#clip0_365_648)">
<path d="M71.521 58.9965L68.5178 57.2637C69.0297 55.7313 69.375 54.1217 69.375 52.4167C69.375 50.7116 69.0327 49.1021 68.5178 47.5697L71.521 45.8368C72.9979 44.9858 73.5036 43.0988 72.6495 41.625C71.7954 40.1481 69.9053 39.6424 68.4377 40.4965L65.4376 42.2293C63.2638 39.7812 60.3686 37.9897 57.0417 37.3145V33.9198C57.0417 32.2147 55.6634 30.8364 53.9583 30.8364C52.2533 30.8364 50.875 32.2147 50.875 33.9198V37.3145C47.5481 37.9928 44.6528 39.7842 42.4791 42.2293L39.479 40.4965C37.999 39.6455 36.1182 40.1542 35.2672 41.625C34.4162 43.1019 34.9218 44.9858 36.3957 45.8368L39.3988 47.5697C38.887 49.1021 38.5417 50.7116 38.5417 52.4167C38.5417 54.1217 38.8839 55.7313 39.3988 57.2637L36.3957 58.9965C34.9218 59.8475 34.4162 61.7345 35.2672 63.2083C36.1243 64.6945 38.0298 65.1786 39.479 64.3368L42.4791 62.604C44.6528 65.0522 47.5481 66.8436 50.875 67.5188V70.9136C50.875 72.6187 52.2533 73.9969 53.9583 73.9969C55.6634 73.9969 57.0417 72.6187 57.0417 70.9136V67.5188C60.3686 66.8405 63.2638 65.0491 65.4376 62.604L68.4377 64.3368C69.8868 65.1786 71.7923 64.6945 72.6495 63.2083C73.5005 61.7314 72.9948 59.8475 71.521 58.9965ZM53.9583 61.6667C48.8585 61.6667 44.7083 57.5165 44.7083 52.4167C44.7083 47.3168 48.8585 43.1667 53.9583 43.1667C59.0582 43.1667 63.2083 47.3168 63.2083 52.4167C63.2083 57.5165 59.0582 61.6667 53.9583 61.6667ZM14.6798 66.415C9.15133 64.9165 6.16667 62.5084 6.16667 61.0068V38.4122C10.5635 41.144 17.0046 42.9077 24.5711 43.142H24.6667C26.3255 43.142 27.6945 41.8223 27.7469 40.1512C27.7993 38.4492 26.4612 37.0277 24.7592 36.9753C13.2398 36.6238 6.16358 32.264 6.16358 29.2917V22.9986C10.8965 25.9401 17.9882 27.75 26.2052 27.75C34.4223 27.75 41.514 25.937 46.2469 22.9986V23.125C46.2469 24.8301 47.6252 26.2083 49.3302 26.2083C51.0353 26.2083 52.4136 24.8301 52.4136 23.125V13.875C52.4167 5.96625 41.1502 0 26.2083 0C11.2665 0 0 5.96625 0 13.875V61.0068C0 65.9772 4.76375 70.1181 13.0702 72.3658C14.6674 72.8129 16.4126 71.854 16.8535 70.1982C17.2975 68.5548 16.3232 66.859 14.6798 66.415ZM26.2083 6.16667C38.443 6.16667 46.25 10.73 46.25 13.875C46.25 17.02 38.443 21.5833 26.2083 21.5833C13.9737 21.5833 6.16667 17.02 6.16667 13.875C6.16667 10.73 13.9737 6.16667 26.2083 6.16667ZM31.7152 55.4167C32.9207 56.6223 32.9207 58.571 31.7152 59.7766C30.5096 60.9822 28.5609 60.9822 27.3553 59.7766L26.3471 58.7683C26.6554 63.3039 27.5249 66.4181 29.2331 69.3719C30.0841 70.8488 29.5815 72.7327 28.1077 73.5837C26.6616 74.4317 24.753 73.9476 23.8958 72.4614C21.3459 68.0492 20.424 63.5352 20.1496 58.4292L18.7189 59.8598C17.5133 61.0654 15.5647 61.0654 14.3591 59.8598C13.1535 58.6542 13.1535 56.7056 14.3591 55.5L18.722 51.1402C21.0468 48.8122 25.1107 48.8061 27.4417 51.1402L31.7152 55.4167Z" fill="white"/>
</g>
<defs>
<clipPath id="clip0_365_648">
<rect width="74" height="74" fill="white"/>
</clipPath>
</defs>
</svg>
