<svg width="75" height="74" viewBox="0 0 75 74" fill="none" xmlns="http://www.w3.org/2000/svg">
<path d="M22.4289 15.2995C25.0158 15.2995 27.3468 16.3663 29.0242 18.0776C24.9387 20.8526 22.247 25.5362 22.247 30.8364C22.247 31.8477 22.358 32.8313 22.5461 33.7902C22.506 33.7902 22.469 33.8026 22.4289 33.8026C17.3198 33.8026 13.1789 29.6617 13.1789 24.5526C13.1789 19.4435 17.3198 15.2995 22.4289 15.2995ZM53.0834 15.4167C50.4903 15.4167 48.1532 16.4928 46.4727 18.2102C50.4595 21.0006 53.0834 25.6071 53.0834 30.8333C53.0834 31.8786 52.9755 32.8992 52.7751 33.8858C52.8799 33.8889 52.9786 33.9167 53.0834 33.9167C58.1925 33.9167 62.3334 29.7757 62.3334 24.6667C62.3334 19.5576 58.1925 15.4167 53.0834 15.4167ZM37.6667 40.0833C42.7758 40.0833 46.9167 35.9424 46.9167 30.8333C46.9167 25.7242 42.7758 21.5833 37.6667 21.5833C32.5577 21.5833 28.4167 25.7242 28.4167 30.8333C28.4167 35.9424 32.5577 40.0833 37.6667 40.0833ZM37.6667 46.25C32.2586 46.25 27.3838 49.5276 25.5338 54.4085C24.9295 56.0026 25.7312 57.7817 27.3252 58.386C28.9132 58.9873 30.6984 58.1887 31.3027 56.5946C32.2493 54.094 34.8085 52.4197 37.6698 52.4197C40.5312 52.4197 43.0903 54.0971 44.0369 56.5946C44.5025 57.8248 45.6772 58.5864 46.9198 58.5864C47.2837 58.5864 47.6537 58.5217 48.0113 58.3891C49.6023 57.7847 50.404 56.0057 49.8027 54.4116C47.9527 49.5337 43.078 46.2531 37.6698 46.2531L37.6667 46.25ZM49.0751 40.6907C47.4502 41.2026 46.5467 42.9323 47.0586 44.5573C47.5704 46.1791 49.3063 47.0794 50.9251 46.5737C51.6127 46.3579 52.3372 46.25 53.0834 46.25C55.9447 46.25 58.5039 47.9273 59.4505 50.4248C59.9161 51.6551 61.0908 52.4167 62.3334 52.4167C62.6972 52.4167 63.0672 52.3519 63.4249 52.2193C65.0159 51.615 65.8176 49.8359 65.2163 48.2418C63.3663 43.364 58.4916 40.0833 53.0834 40.0833C51.7082 40.0833 50.3608 40.2868 49.0751 40.6907ZM22.2501 40.0833C16.8419 40.0833 11.9672 43.3609 10.1172 48.2418C9.51283 49.8359 10.3145 51.615 11.9086 52.2193C12.2693 52.355 12.6362 52.4167 13.0001 52.4167C14.2427 52.4167 15.4174 51.6582 15.883 50.4248C16.8296 47.9242 19.3887 46.25 22.2501 46.25C22.9962 46.25 23.7239 46.3579 24.4084 46.5737C26.0272 47.0794 27.7631 46.1791 28.2749 44.5573C28.7867 42.9323 27.8833 41.2026 26.2584 40.6907C24.9727 40.2868 23.6252 40.0833 22.2501 40.0833ZM22.2501 67.8333H16.0834C10.9836 67.8333 6.83341 63.6832 6.83341 58.5833V52.4167C6.83341 50.7116 5.45208 49.3333 3.75008 49.3333C2.04808 49.3333 0.666748 50.7116 0.666748 52.4167V58.5833C0.666748 67.0841 7.58266 74 16.0834 74H22.2501C23.9521 74 25.3334 72.6217 25.3334 70.9167C25.3334 69.2116 23.9521 67.8333 22.2501 67.8333ZM71.5834 49.3333C69.8814 49.3333 68.5001 50.7116 68.5001 52.4167V58.5833C68.5001 63.6832 64.3499 67.8333 59.2501 67.8333H53.0834C51.3814 67.8333 50.0001 69.2116 50.0001 70.9167C50.0001 72.6217 51.3814 74 53.0834 74H59.2501C67.7508 74 74.6667 67.0841 74.6667 58.5833V52.4167C74.6667 50.7116 73.2854 49.3333 71.5834 49.3333ZM59.2501 0H53.0834C51.3814 0 50.0001 1.37825 50.0001 3.08333C50.0001 4.78842 51.3814 6.16667 53.0834 6.16667H59.2501C64.3499 6.16667 68.5001 10.3168 68.5001 15.4167V21.5833C68.5001 23.2884 69.8814 24.6667 71.5834 24.6667C73.2854 24.6667 74.6667 23.2884 74.6667 21.5833V15.4167C74.6667 6.91592 67.7508 0 59.2501 0ZM3.75008 24.6667C5.45208 24.6667 6.83341 23.2884 6.83341 21.5833V15.4167C6.83341 10.3168 10.9836 6.16667 16.0834 6.16667H22.2501C23.9521 6.16667 25.3334 4.78842 25.3334 3.08333C25.3334 1.37825 23.9521 0 22.2501 0H16.0834C7.58266 0 0.666748 6.91592 0.666748 15.4167V21.5833C0.666748 23.2884 2.04808 24.6667 3.75008 24.6667Z" fill="white"/>
</svg>
