<svg width="74" height="74" viewBox="0 0 74 74" fill="none" xmlns="http://www.w3.org/2000/svg">
<path d="M61.4996 0.5H34.1246C32.4426 0.5 31.083 1.86267 31.083 3.54167C31.083 5.22067 32.4426 6.58333 34.1246 6.58333H61.4996C62.0441 6.58333 62.5703 6.65633 63.0752 6.79017L1.5575 68.3079C0.368204 69.4972 0.368204 71.4195 1.5575 72.6088C2.15062 73.2019 2.92929 73.5 3.70795 73.5C4.48662 73.5 5.26529 73.2019 5.85841 72.6088L67.3761 11.0911C67.51 11.593 67.583 12.1222 67.583 12.6667V40.0417C67.583 41.7207 68.9426 43.0833 70.6246 43.0833C72.3067 43.0833 73.6663 41.7207 73.6663 40.0417V12.6667C73.6663 5.95675 68.2095 0.5 61.4996 0.5Z" fill="white"/>
</svg>
